<svg xmlns="http://www.w3.org/2000/svg" width="1200" height="840" viewBox="0 0 1200 840" fill="none">
<rect width="1200" height="840" rx="48" fill="#0C1E13"/>
<circle cx="840" cy="240" r="280" fill="url(#a)" fill-opacity="0.65"/>
<circle cx="320" cy="620" r="260" fill="url(#b)" fill-opacity="0.55"/>
<g opacity="0.9">
<path d="M134 670C306 520 478 428 624 394C790 356 934 386 1082 514" stroke="#74F0AD" stroke-opacity="0.55" stroke-width="5" stroke-linecap="round"/>
<path d="M166 610C312 502 458 430 612 402C766 374 924 408 1040 496" stroke="#DFF7E7" stroke-opacity="0.45" stroke-width="3" stroke-linecap="round"/>
<circle cx="212" cy="602" r="11" fill="#DFF7E7"/>
<circle cx="420" cy="476" r="11" fill="#DFF7E7"/>
<circle cx="598" cy="408" r="11" fill="#17C964"/>
<circle cx="826" cy="426" r="11" fill="#DFF7E7"/>
<circle cx="1020" cy="534" r="11" fill="#17C964"/>
</g>
<rect x="96" y="110" width="410" height="126" rx="26" fill="#102117" fill-opacity="0.84" stroke="#1D3A29"/>
<text x="138" y="165" fill="#FFFFFF" font-size="26" font-family="Arial" font-weight="700">Digital MRV</text>
<text x="138" y="205" fill="#ACB9B1" font-size="22" font-family="Arial">Satellite, IoT, and blockchain proof</text>
<rect x="620" y="560" width="408" height="130" rx="26" fill="#102117" fill-opacity="0.84" stroke="#1D3A29"/>
<text x="664" y="615" fill="#FFFFFF" font-size="26" font-family="Arial" font-weight="700">Retirement Confirmed</text>
<text x="664" y="655" fill="#ACB9B1" font-size="22" font-family="Arial">Token burned and certificate issued</text>
<defs>
<radialGradient id="a" cx="0" cy="0" r="1" gradientUnits="userSpaceOnUse" gradientTransform="translate(840 240) rotate(90) scale(280)">
<stop stop-color="#17C964"/>
<stop offset="1" stop-color="#17C964" stop-opacity="0"/>
</radialGradient>
<radialGradient id="b" cx="0" cy="0" r="1" gradientUnits="userSpaceOnUse" gradientTransform="translate(320 620) rotate(90) scale(260)">
<stop stop-color="#0F8A45"/>
<stop offset="1" stop-color="#0F8A45" stop-opacity="0"/>
</radialGradient>
</defs>
</svg>